<svg width="621" height="324" viewBox="0 0 621 324" fill="none" xmlns="http://www.w3.org/2000/svg">
<path d="M446.51 160.45C445.99 178.29 441.71 195.92 434.2 211.84C426.71 227.78 416.06 242 403.27 253.59C396.9 259.41 389.99 264.58 382.69 269.04C375.41 273.52 367.73 277.31 359.8 280.36C343.94 286.47 327.04 289.59 310.13 289.6C293.23 289.62 276.3 286.66 260.3 280.74C244.32 274.82 229.19 265.99 216.17 254.4C209.67 248.6 203.7 242.14 198.41 235.1C193.14 228.05 188.57 220.41 184.85 212.34C177.41 196.21 173.48 178.32 173.48 160.45C173.46 142.58 177.31 124.67 184.75 108.51C188.44 100.42 193.02 92.7799 198.3 85.7199C203.58 78.6599 209.59 72.2099 216.09 66.4099C229.13 54.8199 244.29 46.0299 260.29 40.1199C276.3 34.2199 293.23 31.2799 310.13 31.2899C327.03 31.2999 343.94 34.4199 359.79 40.5399C367.72 43.5999 375.39 47.3899 382.67 51.8699C389.96 56.3399 396.88 61.4999 403.23 67.3299C416.01 78.9199 426.65 93.1399 434.13 109.07C437.85 117.04 440.84 125.4 442.9 134.03C444.97 142.68 446.17 151.54 446.51 160.45Z" fill="#836696"/>
<path d="M428.31 162C428.38 165.02 428.4 168.04 428.54 171.05C428.8 174.06 428.99 177.08 429.31 180.08L429.9 184.57C430.12 186.06 430.25 187.57 430.57 189.05L431.42 193.5C431.7 194.98 431.98 196.47 432.37 197.93C435.1 209.7 439.18 221.13 444.46 231.93C445.13 233.27 445.72 234.66 446.47 235.97L448.64 239.92L449.73 241.89C450.1 242.54 450.51 243.17 450.9 243.81L453.26 247.64C454.02 248.93 454.89 250.15 455.73 251.39L458.27 255.09C460.03 257.51 461.88 259.87 463.69 262.23C471.2 271.52 479.67 279.98 488.9 287.43C498.15 294.86 508.14 301.27 518.66 306.54C529.2 311.77 540.3 315.76 551.62 318.56C562.94 321.34 574.52 322.93 586.07 323.15C588.95 323.29 591.84 323.18 594.72 323.11C596.44 323.09 598.13 323.01 599.83 322.91C601.36 322.94 602.9 322.95 604.43 322.93C609.79 322.85 615.14 322.48 620.41 321.66H620.42H620.41C609.94 319.73 599.7 317.43 589.84 314.42C580.03 311.4 570.48 307.68 562.55 302.44C558.61 299.84 555.15 296.82 552.55 293.5C549.96 290.16 548.35 286.51 547.69 282.6L547.49 281.12L547.38 280.39L547.36 279.62L547.31 278.09L547.28 277.33C547.27 277.06 547.29 276.69 547.29 276.37L547.45 268.47L547.58 252.67L547.5 236.87L547.37 228.97L547.31 225.02L547.27 223.05L547.25 222.43L547.22 221.79L547.13 220.63C546.59 214.71 545.45 209.13 543.7 203.62C542.85 200.87 541.81 198.17 540.67 195.52C539.45 192.89 538.16 190.29 536.64 187.8C535.19 185.28 533.43 182.92 531.62 180.64C530.69 179.51 529.7 178.42 528.74 177.34C527.7 176.31 526.68 175.26 525.58 174.29C521.23 170.38 516.24 167.24 510.97 165.01C507.82 163.69 504.57 162.69 501.31 161.98C504.58 161.27 507.82 160.27 510.97 158.95C516.24 156.72 521.23 153.58 525.58 149.67C526.68 148.7 527.7 147.66 528.74 146.62C529.71 145.53 530.7 144.45 531.62 143.32C533.43 141.03 535.18 138.67 536.64 136.16C538.17 133.67 539.45 131.07 540.67 128.44C541.81 125.79 542.85 123.08 543.7 120.34C545.45 114.83 546.59 109.26 547.13 103.33L547.22 102.17L547.25 101.53L547.27 100.91L547.31 98.94L547.37 94.99L547.5 87.09L547.58 71.29L547.45 55.49L547.29 47.59C547.29 47.27 547.27 46.9 547.28 46.63L547.31 45.87L547.36 44.34L547.38 43.57L547.49 42.84L547.69 41.36C548.34 37.45 549.95 33.8 552.55 30.46C555.15 27.14 558.6 24.13 562.55 21.52C570.47 16.28 580.03 12.56 589.84 9.53999C599.7 6.52999 609.94 4.22999 620.41 2.29999H620.42H620.41C615.13 1.47999 609.79 1.10999 604.43 1.02999C602.9 1.00999 601.37 1.01999 599.83 1.04999C598.14 0.949991 596.44 0.869992 594.72 0.849992C591.84 0.779992 588.95 0.669992 586.07 0.809992C574.52 1.01999 562.95 2.60999 551.62 5.39999C540.3 8.19999 529.2 12.19 518.66 17.42C508.14 22.69 498.14 29.11 488.9 36.53C479.67 43.98 471.21 52.44 463.69 61.73C461.87 64.1 460.02 66.45 458.27 68.87L455.73 72.57C454.89 73.81 454.02 75.03 453.26 76.32L450.9 80.15C450.51 80.79 450.1 81.42 449.73 82.07L448.64 84.04L446.47 87.99C445.72 89.3 445.14 90.68 444.46 92.03C439.18 102.84 435.11 114.27 432.37 126.03C431.99 127.49 431.7 128.97 431.42 130.46L430.57 134.91C430.25 136.39 430.12 137.9 429.9 139.39L429.31 143.88C428.99 146.88 428.79 149.9 428.54 152.91C428.4 155.96 428.38 158.98 428.31 162Z" fill="#77BCC1"/>
<path d="M428.31 162C428.38 165.02 428.4 168.04 428.54 171.05C428.8 174.06 428.99 177.08 429.31 180.08L429.9 184.57C430.12 186.06 430.25 187.57 430.57 189.05L431.42 193.5C431.7 194.98 431.98 196.47 432.37 197.93C435.1 209.7 439.18 221.13 444.46 231.93C445.13 233.27 445.72 234.66 446.47 235.97L448.64 239.92L449.73 241.89C450.1 242.54 450.51 243.17 450.9 243.81L453.26 247.64C454.02 248.93 454.89 250.15 455.73 251.39L458.27 255.09C460.03 257.51 461.88 259.87 463.69 262.23C471.2 271.52 479.67 279.98 488.9 287.43C498.15 294.86 508.14 301.27 518.66 306.54C529.2 311.77 540.3 315.76 551.62 318.56C562.94 321.34 574.52 322.93 586.07 323.15C588.95 323.29 591.84 323.18 594.72 323.11C596.44 323.09 598.13 323.01 599.83 322.91C601.36 322.94 602.9 322.95 604.43 322.93C609.79 322.85 615.14 322.48 620.41 321.66H620.42H620.41C609.94 319.73 599.7 317.43 589.84 314.42C580.03 311.4 570.48 307.68 562.55 302.44C558.61 299.84 555.15 296.82 552.55 293.5C549.96 290.16 548.35 286.51 547.69 282.6L547.49 281.12L547.38 280.39L547.36 279.62L547.31 278.09L547.28 277.33C547.27 277.06 547.29 276.69 547.29 276.37L547.45 268.47L547.58 252.67L547.5 236.87L547.37 228.97L547.31 225.02L547.27 223.05L547.25 222.43L547.22 221.79L547.13 220.63C546.59 214.71 545.45 209.13 543.7 203.62C542.85 200.87 541.81 198.17 540.67 195.52C539.45 192.89 538.16 190.29 536.64 187.8C535.19 185.28 533.43 182.92 531.62 180.64C530.69 179.51 529.7 178.42 528.74 177.34C527.7 176.31 526.68 175.26 525.58 174.29C521.23 170.38 516.24 167.24 510.97 165.01C507.82 163.69 504.57 162.69 501.31 161.98C504.58 161.27 507.82 160.27 510.97 158.95C516.24 156.72 521.23 153.58 525.58 149.67C526.68 148.7 527.7 147.66 528.74 146.62C529.71 145.53 530.7 144.45 531.62 143.32C533.43 141.03 535.18 138.67 536.64 136.16C538.17 133.67 539.45 131.07 540.67 128.44C541.81 125.79 542.85 123.08 543.7 120.34C545.45 114.83 546.59 109.26 547.13 103.33L547.22 102.17L547.25 101.53L547.27 100.91L547.31 98.94L547.37 94.99L547.5 87.09L547.58 71.29L547.45 55.49L547.29 47.59C547.29 47.27 547.27 46.9 547.28 46.63L547.31 45.87L547.36 44.34L547.38 43.57L547.49 42.84L547.69 41.36C548.34 37.45 549.95 33.8 552.55 30.46C555.15 27.14 558.6 24.13 562.55 21.52C570.47 16.28 580.03 12.56 589.84 9.53999C599.7 6.52999 609.94 4.22999 620.41 2.29999H620.42H620.41C615.13 1.47999 609.79 1.10999 604.43 1.02999C602.9 1.00999 601.37 1.01999 599.83 1.04999C598.14 0.949991 596.44 0.869992 594.72 0.849992C591.84 0.779992 588.95 0.669992 586.07 0.809992C574.52 1.01999 562.95 2.60999 551.62 5.39999C540.3 8.19999 529.2 12.19 518.66 17.42C508.14 22.69 498.14 29.11 488.9 36.53C479.67 43.98 471.21 52.44 463.69 61.73C461.87 64.1 460.02 66.45 458.27 68.87L455.73 72.57C454.89 73.81 454.02 75.03 453.26 76.32L450.9 80.15C450.51 80.79 450.1 81.42 449.73 82.07L448.64 84.04L446.47 87.99C445.72 89.3 445.14 90.68 444.46 92.03C439.18 102.84 435.11 114.27 432.37 126.03C431.99 127.49 431.7 128.97 431.42 130.46L430.57 134.91C430.25 136.39 430.12 137.9 429.9 139.39L429.31 143.88C428.99 146.88 428.79 149.9 428.54 152.91C428.4 155.96 428.38 158.98 428.31 162ZM447.21 162C447.28 140.5 451.53 119.06 459.95 99.15C464.15 89.2 469.39 79.64 475.58 70.67C481.8 61.73 488.99 53.41 497.01 45.91C513 30.86 532.33 19.06 553.5 11.84C553.6 11.81 553.7 11.78 553.8 11.74C549.47 14.17 545.28 17.2 541.65 21.14C537.29 25.7 534.04 31.78 532.54 38.17L532.05 40.58L531.82 41.79L531.72 42.99L531.54 45.4L531.46 46.61C531.44 46.99 531.44 47.28 531.43 47.62L531.27 55.51L531.14 71.29L531.22 87.07L531.45 102.4C531.32 106.98 530.57 111.82 529.54 116.45C528.45 121.1 526.99 125.64 524.99 129.91C521.11 138.51 515.06 145.99 506.95 151.34C502.92 154.03 498.41 156.19 493.6 157.86C488.77 159.47 483.7 160.63 478.46 161.55V162.45C483.69 163.38 488.77 164.54 493.6 166.14C498.41 167.81 502.92 169.97 506.95 172.66C515.06 178.01 521.11 185.49 524.99 194.09C526.99 198.36 528.45 202.91 529.54 207.55C530.57 212.18 531.32 217.02 531.45 221.6L531.22 236.93L531.14 252.71L531.27 268.49L531.43 276.38C531.44 276.72 531.44 277.01 531.46 277.39L531.54 278.6L531.72 281.01L531.82 282.21L532.05 283.42L532.54 285.83C534.04 292.22 537.28 298.29 541.65 302.86C545.28 306.79 549.47 309.83 553.8 312.26C553.7 312.23 553.6 312.2 553.5 312.16C532.33 304.94 512.99 293.14 497.01 278.09C488.99 270.59 481.8 262.27 475.58 253.33C469.39 244.36 464.16 234.8 459.95 224.85C451.53 204.94 447.27 183.5 447.21 162Z" fill="black"/>
<path d="M192.33 152.95C192.07 149.94 191.88 146.92 191.56 143.92L190.97 139.43C190.75 137.94 190.62 136.43 190.3 134.95L189.45 130.5C189.17 129.02 188.89 127.53 188.5 126.07C185.77 114.3 181.69 102.87 176.41 92.07C175.74 90.73 175.15 89.34 174.4 88.03L172.23 84.08L171.14 82.11C170.77 81.46 170.36 80.83 169.97 80.19L167.61 76.36C166.85 75.07 165.98 73.85 165.14 72.61L162.6 68.91C160.84 66.49 158.99 64.13 157.18 61.77C149.67 52.48 141.2 44.02 131.97 36.57C122.72 29.14 112.73 22.73 102.21 17.46C91.6701 12.23 80.5701 8.24003 69.2501 5.44003C57.9301 2.66003 46.3501 1.07003 34.8001 0.850031C31.9201 0.710031 29.0301 0.82003 26.1501 0.89003C24.4301 0.91003 22.7401 0.990031 21.0401 1.09003C19.5101 1.06003 17.9701 1.05003 16.4401 1.07003C11.0801 1.15003 5.73005 1.52003 0.460053 2.34003H0.450053H0.460053C10.9301 4.27003 21.1701 6.57003 31.0301 9.58003C40.8401 12.6 50.3901 16.32 58.3201 21.56C62.2601 24.16 65.7201 27.18 68.3201 30.5C70.91 33.84 72.5201 37.49 73.1801 41.4L73.3801 42.88L73.4901 43.61L73.5101 44.38L73.5601 45.91L73.59 46.67C73.6001 46.94 73.5801 47.31 73.5801 47.63L73.4201 55.53L73.2901 71.33L73.3701 87.13L73.5001 95.03L73.5601 98.98L73.6001 100.95L73.6201 101.57L73.6501 102.21L73.7401 103.37C74.2801 109.29 75.4201 114.87 77.1701 120.38C78.0201 123.13 79.0601 125.83 80.2001 128.48C81.4201 131.11 82.7101 133.71 84.2301 136.2C85.6801 138.72 87.4401 141.08 89.2501 143.36C90.1801 144.49 91.1701 145.58 92.1301 146.66C93.1701 147.69 94.1901 148.74 95.2901 149.71C99.6401 153.62 104.63 156.76 109.9 158.99C113.05 160.31 116.3 161.31 119.56 162.02C116.29 162.73 113.05 163.73 109.9 165.05C104.63 167.28 99.6401 170.42 95.2901 174.33C94.1901 175.3 93.1701 176.34 92.1301 177.38C91.16 178.47 90.1701 179.55 89.2501 180.68C87.4401 182.97 85.6901 185.33 84.2301 187.84C82.7001 190.33 81.4201 192.93 80.2001 195.56C79.0601 198.21 78.0201 200.92 77.1701 203.66C75.4201 209.17 74.2801 214.74 73.7401 220.67L73.6501 221.83L73.6201 222.47L73.6001 223.09L73.5601 225.06L73.4801 229L73.3501 236.9L73.2701 252.7L73.4001 268.5L73.5601 276.4C73.5601 276.72 73.5801 277.09 73.5701 277.36L73.5401 278.12L73.4901 279.65L73.4701 280.42L73.3601 281.15L73.1601 282.63C72.5101 286.54 70.9001 290.19 68.3001 293.53C65.7001 296.85 62.2501 299.86 58.3001 302.47C50.3801 307.71 40.8201 311.43 31.0101 314.45C21.1501 317.46 10.9101 319.76 0.440053 321.69H0.430054H0.440053C5.72005 322.51 11.0601 322.88 16.4201 322.96C17.9501 322.98 19.4801 322.97 21.0201 322.94C22.7201 323.04 24.4101 323.12 26.1301 323.14C29.0101 323.21 31.9001 323.32 34.7801 323.18C46.3301 322.97 57.9001 321.38 69.2301 318.59C80.5501 315.79 91.6501 311.8 102.19 306.57C112.71 301.3 122.71 294.88 131.95 287.46C141.18 280.01 149.64 271.55 157.16 262.26C158.98 259.89 160.83 257.54 162.58 255.12L165.12 251.42C165.96 250.18 166.83 248.96 167.59 247.67L169.95 243.84C170.34 243.2 170.75 242.57 171.12 241.92L172.21 239.95L174.38 236C175.13 234.69 175.71 233.31 176.39 231.96C181.67 221.15 185.74 209.72 188.48 197.96C188.86 196.5 189.15 195.02 189.43 193.53L190.28 189.08C190.6 187.6 190.73 186.09 190.95 184.6L191.54 180.11C191.86 177.11 192.06 174.09 192.31 171.08C192.45 168.06 192.47 165.04 192.54 162.03C192.49 158.98 192.47 155.96 192.33 152.95Z" fill="#77BCC1"/>
<path d="M447.21 161.96C446.75 179.89 442.52 197.64 435.04 213.7C427.58 229.78 416.93 244.16 404.09 255.91C397.69 261.81 390.74 267.06 383.4 271.6C376.09 276.2 368.32 280.01 360.32 283.11C344.31 289.33 327.22 292.5 310.14 292.52C293.06 292.54 275.95 289.51 259.81 283.46C243.69 277.42 228.49 268.42 215.43 256.66C208.92 250.78 202.94 244.24 197.65 237.12C192.38 229.99 187.82 222.29 184.11 214.16C176.69 197.9 172.78 179.92 172.78 161.96C172.77 144 176.61 126 184.04 109.73C187.73 101.58 192.3 93.88 197.58 86.75C202.86 79.62 208.87 73.1 215.39 67.22C228.46 55.48 243.7 46.52 259.82 40.5C275.96 34.48 293.06 31.47 310.13 31.49C327.2 31.5 344.28 34.67 360.28 40.89C368.28 44 376.04 47.8 383.34 52.39C390.67 56.94 397.63 62.16 404.01 68.07C416.84 79.81 427.48 94.19 434.95 110.25C438.66 118.28 441.63 126.71 443.68 135.4C445.72 144.09 446.89 153 447.21 161.96ZM427.79 161.96C428.08 154.24 427.64 146.48 426.43 138.82C425.23 131.15 423.35 123.55 420.68 116.18C415.39 101.43 407.12 87.57 396.37 75.73C390.96 69.85 384.97 64.45 378.44 59.73C371.89 55.05 364.88 50.95 357.48 47.67C342.68 41.09 326.41 37.71 310.14 37.71C293.86 37.74 277.62 41.28 262.96 48.06C255.63 51.44 248.69 55.6 242.29 60.41C235.89 65.23 230.03 70.67 224.76 76.59C214.24 88.45 206.24 102.2 200.86 116.71C195.49 131.24 192.78 146.58 192.75 161.97C192.77 177.36 195.41 192.72 200.79 207.26C206.16 221.78 214.17 235.55 224.72 247.39C230 253.3 235.87 258.74 242.28 263.54C248.69 268.33 255.63 272.49 262.97 275.84C277.63 282.6 293.87 286.12 310.13 286.15C326.39 286.15 342.65 282.77 357.44 276.19C364.84 272.91 371.84 268.81 378.39 264.14C384.9 259.41 390.9 254.02 396.3 248.14C407.04 236.31 415.3 222.46 420.6 207.72C425.92 192.97 428.24 177.38 427.79 161.96Z" fill="black"/>
<path d="M192.46 152.95C192.2 149.94 192.01 146.92 191.69 143.92L191.1 139.43C190.88 137.94 190.75 136.43 190.43 134.95L189.58 130.5C189.3 129.02 189.02 127.53 188.63 126.07C185.9 114.3 181.82 102.87 176.54 92.07C175.87 90.73 175.28 89.34 174.53 88.03L172.36 84.08L171.27 82.11C170.9 81.46 170.49 80.83 170.1 80.19L167.74 76.36C166.98 75.07 166.11 73.85 165.27 72.61L162.73 68.91C160.97 66.49 159.12 64.13 157.31 61.77C149.8 52.48 141.33 44.02 132.1 36.57C122.85 29.14 112.86 22.73 102.34 17.46C91.8001 12.23 80.7001 8.24003 69.3801 5.44003C58.0601 2.66003 46.4801 1.07003 34.9301 0.850031C32.0501 0.710031 29.1601 0.82003 26.2801 0.89003C24.5601 0.91003 22.8701 0.990031 21.1701 1.09003C19.6401 1.06003 18.1001 1.05003 16.5701 1.07003C11.2101 1.15003 5.86006 1.52003 0.590058 2.34003H0.580058H0.590058C11.0601 4.27003 21.3001 6.57003 31.1601 9.58003C40.9701 12.6 50.5201 16.32 58.4501 21.56C62.3901 24.16 65.8501 27.18 68.4501 30.5C71.0401 33.84 72.6501 37.49 73.3101 41.4L73.5101 42.88L73.6201 43.61L73.6401 44.38L73.6901 45.91L73.7201 46.67C73.7301 46.94 73.7101 47.31 73.7101 47.63L73.5501 55.53L73.4201 71.33L73.5001 87.13L73.6301 95.03L73.6901 98.98L73.7301 100.95L73.7501 101.57L73.7801 102.21L73.8701 103.37C74.4101 109.29 75.5501 114.87 77.3001 120.38C78.1501 123.13 79.1901 125.83 80.3301 128.48C81.5501 131.11 82.8401 133.71 84.3601 136.2C85.8101 138.72 87.5701 141.08 89.3801 143.36C90.3101 144.49 91.3001 145.58 92.2601 146.66C93.3001 147.69 94.3201 148.74 95.4201 149.71C99.7701 153.62 104.76 156.76 110.03 158.99C113.18 160.31 116.43 161.31 119.69 162.02C116.42 162.73 113.18 163.73 110.03 165.05C104.76 167.28 99.7701 170.42 95.4201 174.33C94.3201 175.3 93.3001 176.34 92.2601 177.38C91.2901 178.47 90.3001 179.55 89.3801 180.68C87.5701 182.97 85.8201 185.33 84.3601 187.84C82.8301 190.33 81.5501 192.93 80.3301 195.56C79.1901 198.21 78.1501 200.92 77.3001 203.66C75.5501 209.17 74.4101 214.74 73.8701 220.67L73.7801 221.83L73.7501 222.47L73.7301 223.09L73.6901 225.06L73.6101 229L73.4801 236.9L73.4001 252.7L73.5301 268.5L73.6901 276.4C73.6901 276.72 73.7101 277.09 73.7001 277.36L73.6701 278.12L73.6201 279.65L73.6001 280.42L73.4901 281.15L73.2901 282.63C72.6401 286.54 71.0301 290.19 68.4301 293.53C65.8301 296.85 62.3801 299.86 58.4301 302.47C50.5101 307.71 40.9501 311.43 31.1401 314.45C21.2801 317.46 11.0401 319.76 0.570058 321.69H0.560059H0.570058C5.85006 322.51 11.1901 322.88 16.5501 322.96C18.0801 322.98 19.6101 322.97 21.1501 322.94C22.8501 323.04 24.5401 323.12 26.2601 323.14C29.1401 323.21 32.0301 323.32 34.9101 323.18C46.4601 322.97 58.0301 321.38 69.3601 318.59C80.6801 315.79 91.7801 311.8 102.32 306.57C112.84 301.3 122.84 294.88 132.08 287.46C141.31 280.01 149.77 271.55 157.29 262.26C159.11 259.89 160.96 257.54 162.71 255.12L165.25 251.42C166.09 250.18 166.96 248.96 167.72 247.67L170.08 243.84C170.47 243.2 170.88 242.57 171.25 241.92L172.34 239.95L174.51 236C175.26 234.69 175.84 233.31 176.52 231.96C181.8 221.15 185.87 209.72 188.61 197.96C188.99 196.5 189.28 195.02 189.56 193.53L190.41 189.08C190.73 187.6 190.86 186.09 191.08 184.6L191.67 180.11C191.99 177.11 192.19 174.09 192.44 171.08C192.58 168.06 192.6 165.04 192.67 162.03C192.62 158.98 192.6 155.96 192.46 152.95ZM161.05 224.85C156.85 234.8 151.61 244.36 145.42 253.33C139.2 262.27 132.01 270.59 123.99 278.09C108 293.14 88.6701 304.94 67.5001 312.16C67.4001 312.19 67.3001 312.22 67.2001 312.26C71.5301 309.83 75.7201 306.8 79.3501 302.86C83.7101 298.3 86.9601 292.22 88.4601 285.83L88.9501 283.42L89.1801 282.21L89.2801 281.01L89.4601 278.6L89.5401 277.39C89.5601 277 89.5601 276.72 89.5701 276.38L89.7301 268.49L89.8601 252.71L89.7801 236.93L89.5501 221.6C89.6801 217.02 90.4301 212.18 91.4601 207.55C92.5501 202.9 94.0101 198.36 96.0101 194.09C99.8901 185.49 105.94 178.01 114.05 172.66C118.08 169.97 122.59 167.81 127.4 166.14C132.23 164.53 137.3 163.37 142.54 162.45V161.55C137.31 160.62 132.23 159.46 127.4 157.86C122.59 156.19 118.08 154.03 114.05 151.34C105.94 145.99 99.8901 138.51 96.0101 129.91C94.0101 125.64 92.5501 121.09 91.4601 116.45C90.4301 111.82 89.6801 106.98 89.5501 102.4L89.7801 87.07L89.8601 71.29L89.7301 55.51L89.5701 47.62C89.5601 47.28 89.5601 46.99 89.5401 46.61L89.4601 45.4L89.2801 42.99L89.1801 41.79L88.9501 40.58L88.4601 38.17C86.9601 31.78 83.7201 25.71 79.3501 21.14C75.7201 17.21 71.5301 14.17 67.2001 11.74C67.3001 11.77 67.4001 11.8 67.5001 11.84C88.6701 19.06 108.01 30.86 123.99 45.91C132.01 53.41 139.2 61.73 145.42 70.67C151.61 79.64 156.84 89.19 161.05 99.15C169.47 119.06 173.73 140.5 173.79 162C173.73 183.5 169.47 204.94 161.05 224.85Z" fill="black"/>
<path d="M274.83 187.18C274.83 187.18 240.41 170.42 221.22 185.94C202.03 201.46 241.11 231.83 265.26 240.09C289.41 248.34 330.46 249.04 368.31 227.69C406.16 206.34 403.88 192.55 403.88 192.55C403.88 192.55 403.8 188.92 395.77 192.36C385.02 196.98 328.9 211.06 274.83 187.18Z" fill="black"/>
<path d="M274.25 190.11C274.25 190.11 272.28 193.64 269.83 195.11C267.38 196.58 268 198.4 270.49 199.97C273.6 201.92 303.41 213.27 340.49 207.69C340.49 207.69 345.79 207.12 349.67 203.71C349.67 203.71 343.28 181.23 343.96 182.83C344.64 184.43 339.69 173.95 337.82 171.18C335.95 168.42 332.1 151.46 332.34 150.76C332.58 150.06 332.72 137.38 333.06 136.41C333.4 135.44 333.08 131.71 333.08 131.71C333.08 131.71 331.13 127.58 330.68 126.17C330.23 124.76 331.39 120.61 331.32 119.1C331.25 117.59 327.87 115.65 327.34 114.66C326.81 113.66 327.71 103.64 327.41 102.49C327.11 101.34 325.28 100.91 325.09 100C324.91 99.09 329.92 86.21 330.38 85.16C330.84 84.11 329.66 82.63 330.04 82.01C330.42 81.39 332.46 80.96 332.46 80.96C332.46 80.96 339.44 81.37 340.14 81.13C340.85 80.89 341.66 78.57 342.58 78.22C343.5 77.87 350.14 79.06 350.14 79.06L353.97 87.89C353.97 87.89 353.15 74.46 352.95 73.11C352.75 71.76 350.4 70.71 348.89 69.52C347.38 68.33 347.33 65.84 345.3 65.52C343.28 65.2 334.19 67.69 332.99 67.97C331.8 68.25 325.5 66.94 324.66 67.26C323.82 67.58 323 70.03 323 70.03C323 70.03 306.82 81.49 306.35 82.39C305.87 83.29 299.63 106.29 299.63 106.29C299.63 106.29 300.43 108.19 300.36 109.01C300.29 109.83 293.59 116.95 293.51 117.79C293.43 118.63 294.93 119.63 294.96 120.66C294.99 121.68 289.58 132.15 289.23 133.18C288.88 134.21 285.41 154.67 285.02 155.62C284.63 156.58 280.92 165.63 280.92 165.63L281.02 172.99L280.16 179.75L276.85 184.71L274.25 190.11Z" fill="black"/>
<path d="M265.11 198.41C265.11 198.41 265.06 208.8 297.19 214C327.31 218.88 351.19 208.11 351.38 207.47C351.56 206.84 347.54 196.11 347.54 196.11C296.27 210.69 273.27 191.65 273.27 191.65L265.11 198.41Z" fill="#836696"/>
</svg>
