<svg height='100px' width='100px'  fill="#e8d360" xmlns="http://www.w3.org/2000/svg" xmlns:xlink="http://www.w3.org/1999/xlink" version="1.1" x="0px" y="0px" viewBox="0 0 512 512" style="enable-background:new 0 0 512 512;" xml:space="preserve"><g><g><g><polygon points="17.055,255.504 19.155,262.538 11.719,264.717 9.62,257.683    "></polygon><polygon points="14.956,248.471 22.391,246.283 24.491,253.238 17.055,255.504 14.956,248.549 7.516,250.736 5.416,243.702      12.852,241.516    "></polygon><path d="M508.194,356.058c2.354,2.431,3.806,5.737,3.806,9.298c0,3.718-1.531,7.033-3.884,9.457l-0.158,0.166     c-2.423,2.336-5.739,3.796-9.378,3.796c-3.632,0-6.946-1.539-9.457-3.962l-0.078-0.079c-2.345-2.424-3.805-5.739-3.805-9.378     s1.538-6.954,3.883-9.378l0.159-0.157c2.43-2.345,5.666-3.806,9.298-3.806c3.719,0,7.033,1.461,9.458,3.884L508.194,356.058z      M504.153,365.355c0-1.539-0.562-2.912-1.61-3.884c-1.05-1.05-2.432-1.61-3.963-1.61c-1.53,0-2.904,0.561-3.884,1.61     c-1.042,0.972-1.689,2.345-1.689,3.884s0.647,2.913,1.61,3.964c1.059,0.971,2.433,1.617,3.963,1.617     c1.531,0,2.913-0.646,3.963-1.617C503.592,368.269,504.153,366.895,504.153,365.355z"></path><path d="M499.717,151.47c1.855,1.05,2.502,3.474,1.374,5.336c-0.332,0.648-0.813,1.051-1.374,1.453l-14.313,8.162     c-1.775,1.137-4.206,0.489-5.248-1.374c-1.137-1.854-0.489-4.277,1.373-5.336l8.399-4.847l-8.399-4.847     c-1.862-1.137-2.51-3.481-1.373-5.336c1.042-1.863,3.473-2.511,5.248-1.46L499.717,151.47z"></path><path d="M460.989,270.62c2.187,0.159,3.726,2.021,3.561,4.2l-10.018,125.782c-0.086,0.884-0.489,1.776-1.136,2.423     c-1.531,1.532-3.964,1.532-5.495,0l-22.719-22.632c-0.237-0.245-0.481-0.411-0.646-0.489l-0.159-0.079     c-0.323-0.165-0.646-0.165-0.891-0.165c-0.324,0-0.727,0.086-0.972,0.165l-0.805,0.568c-22.475,24.25-50.932,43.812-81.806,57.31     c-30.959,13.578-64.501,21.093-97.24,21.093c-28.777,0-70.244-5.896-109.856-32.412c-27.806-18.67-54.725-47.45-75.659-91.586     c-0.726-1.452-0.564-3.228,0.486-4.523c1.457-1.617,3.959-1.696,5.498-0.322c21.175,18.913,46.72,34.354,73.8,44.938     c26.756,10.508,55.048,16.412,82.207,16.412c30.15,0,57.227-6.954,80.27-20.287c22.956-13.262,41.956-32.902,55.85-58.201     c0.252-0.402,0.331-0.972,0.252-1.453c-0.087-0.489-0.252-0.892-0.489-1.216l-22.877-22.877c-0.647-0.646-1.05-1.452-1.136-2.423     c-0.157-2.187,1.46-4.042,3.56-4.208l125.773-10.018H460.989z M447.412,391.548l9.054-112.765l-112.844,8.976l16.973,16.972     c1.46,1.619,2.352,3.473,2.589,5.494c0.324,2.107,0,4.366-1.129,6.308c-14.549,26.595-34.52,47.284-58.77,61.271     c-24.25,13.981-52.7,21.338-84.146,21.338c-28.13,0-57.393-6.063-84.955-16.972c-21.988-8.652-43.006-20.287-61.517-34.275     c18.756,33.55,41.309,56.504,64.505,72.023c37.993,25.467,77.763,31.039,105.491,31.039c31.603,0,64.095-7.271,94.091-20.366     c29.981-13.096,57.469-32.096,79.295-55.455l0.245-0.245c0.883-0.883,1.941-1.617,3.07-2.099     c1.207-0.568,2.581-0.892,3.955-0.971c1.381,0,2.755,0.245,3.963,0.813l0.244,0.078c1.129,0.482,2.267,1.208,3.149,2.101     L447.412,391.548z"></path><path d="M457.928,194.713c0.805,1.373,0.646,3.157-0.49,4.452c-1.453,1.61-3.884,1.776-5.495,0.315     c-21.179-18.827-46.724-34.268-73.808-44.939c-26.752-10.507-55.045-16.325-82.207-16.325c-29.981,0-57.065,6.868-80.021,20.122     l-0.161,0.087c-23.038,13.253-42.035,32.894-55.857,58.193c-0.24,0.49-0.402,0.972-0.323,1.461     c0.083,0.561,0.323,0.971,0.73,1.373l22.632,22.711c0.646,0.647,1.05,1.539,1.211,2.424c0.162,2.187-1.452,4.042-3.635,4.207     L54.725,258.898h-0.647c-2.104-0.166-3.718-2.1-3.556-4.207l10.021-125.616c0-0.963,0.406-1.934,1.133-2.661     c1.536-1.538,4.042-1.538,5.577,0l22.631,22.712c0.245,0.244,0.568,0.402,0.81,0.481c0.324,0.165,0.647,0.244,0.971,0.244     c0.241,0,0.564-0.079,0.888-0.244l0.81-0.561c22.474-24.171,50.927-43.732,81.883-57.31     c30.96-13.586,64.426-21.101,97.159-21.101c28.859,0,70.247,5.896,109.859,32.412     C410.152,121.726,436.992,150.577,457.928,194.713z M442.486,181.617c-18.835-33.621-41.396-56.584-64.509-72.104     c-37.985-25.458-77.842-31.038-105.573-31.038c-31.683,0-64.096,7.277-94.084,20.374c-29.989,13.174-57.476,32.089-79.298,55.533     l-0.162,0.236c-0.971,0.893-2.021,1.618-3.07,2.107c-1.295,0.562-2.589,0.885-3.963,0.885c-1.456,0-2.83-0.244-4.041-0.727     c-1.295-0.481-2.424-1.294-3.395-2.266l-16.734-16.647l-8.972,112.765l112.765-9.055l-16.735-16.656     c-1.535-1.61-2.502-3.718-2.826-5.818v-0.078c-0.324-2.101,0.079-4.286,1.129-6.229c14.553-26.595,34.599-47.205,58.766-61.186     l0.245-0.166c24.167-13.901,52.545-21.18,83.9-21.18c28.134,0,57.397,6.063,85.041,16.894     C402.874,155.914,423.889,167.558,442.486,181.617z"></path><path d="M345.968,467.851c2.186,0,3.962,1.696,3.962,3.884c0,2.179-1.776,3.875-3.962,3.875H325.68     c-2.187,0-3.963-1.696-3.963-3.875c0-2.188,1.776-3.884,3.963-3.884H345.968z"></path><path d="M332.382,478.278c2.187,0,3.963,1.783,3.963,3.884c0,2.179-1.776,3.963-3.963,3.963h-43.479     c-2.1,0-3.884-1.784-3.884-3.963c0-2.101,1.784-3.884,3.884-3.884H332.382z"></path><path d="M90.532,418.702c1.859,1.864,3.074,4.532,3.074,7.358c0,2.834-1.215,5.501-3.074,7.356     c-1.859,1.862-4.445,2.992-7.274,2.992c-2.909,0-5.499-1.13-7.357-2.992c-1.859-1.855-3.07-4.522-3.07-7.356     c0-2.826,1.211-5.494,3.07-7.358c1.859-1.854,4.449-2.99,7.357-2.99C86.087,415.712,88.673,416.848,90.532,418.702z      M85.764,426.061c0-0.728-0.24-1.374-0.726-1.776c-0.486-0.49-1.133-0.728-1.78-0.728c-0.727,0-1.374,0.237-1.859,0.728     c-0.403,0.402-0.727,1.049-0.727,1.776c0,0.726,0.324,1.373,0.727,1.776c0.485,0.488,1.132,0.812,1.859,0.812     c0.647,0,1.294-0.323,1.78-0.812C85.523,427.434,85.764,426.786,85.764,426.061z"></path><path d="M90.938,38.461c0.565,2.107-0.647,4.207-2.75,4.775l-6.951,1.855c-2.1,0.568-4.204-0.647-4.768-2.747     c-0.568-2.101,0.647-4.208,2.747-4.768l6.95-1.863C88.271,35.152,90.453,36.361,90.938,38.461z"></path><path d="M81.237,55.274c0.564,2.108-0.647,4.287-2.747,4.855c-2.104,0.48-4.203-0.727-4.771-2.835l-1.859-6.788     c-0.564-2.1,0.73-4.2,2.751-4.768c2.1-0.569,4.283,0.726,4.768,2.747L81.237,55.274z"></path><path d="M75.9,35.311c0.485,2.101-0.726,4.208-2.826,4.769c-2.104,0.568-4.203-0.727-4.771-2.748l-1.697-6.543     c-0.564-2.107,0.647-4.208,2.751-4.776c2.1-0.561,4.204,0.647,4.768,2.756L75.9,35.311z"></path><path d="M71.54,43.719c0.564,2.021-0.731,4.199-2.751,4.768l-7.195,1.862c-2.021,0.561-4.121-0.646-4.769-2.746     c-0.485-2.108,0.727-4.209,2.83-4.776l7.033-1.934C68.788,40.402,70.971,41.618,71.54,43.719z"></path><polygon points="7.437,250.736 9.536,257.77 2.101,259.948 0,252.915    "></polygon></g></g></g></svg>