<svg height='100px' width='100px'  fill="#e8d360" xmlns="http://www.w3.org/2000/svg" xmlns:xlink="http://www.w3.org/1999/xlink" version="1.1" x="0px" y="0px" viewBox="0 0 512 512" enable-background="new 0 0 512 512" xml:space="preserve"><g><path d="M468.422,0H221.547c-5.031,0-9.125,4.094-9.125,9.125v493.781c0,5,4.094,9.094,9.125,9.094   c5.016,0,9.109-4.094,9.109-9.094V265.125h163.609c5.031,0,9.125-4.094,9.125-9.125c0-5.016-4.094-9.094-9.125-9.094H230.656V18.25   h237.766c5.031,0,9.125-4.094,9.125-9.125S473.453,0,468.422,0z"></path><path d="M88.062,0C58.516,0,34.453,24.062,34.453,53.609s24.062,53.609,53.609,53.609s53.609-24.062,53.609-53.609   S117.609,0,88.062,0z M88.062,89c-19.516,0-35.375-15.875-35.375-35.391c0-19.5,15.859-35.359,35.375-35.359   s35.391,15.859,35.391,35.359C123.453,73.125,107.578,89,88.062,89z"></path></g></svg>
