<svg height='100px' width='100px'  fill="#613e4b" xmlns="http://www.w3.org/2000/svg" xmlns:xlink="http://www.w3.org/1999/xlink" version="1.1" x="0px" y="0px" viewBox="0 0 100 100" style="enable-background:new 0 0 100 100;" xml:space="preserve"><g><path d="M59.8,60.3c-5.1-0.8-9.5-4-11.7-8.7c-2.3-4.9-1.9-10.8,1.2-15.4c0.2-0.3,0.2-0.6,0.1-1c-0.1-0.3-0.4-0.5-0.8-0.6   c-3.4-0.5-6.9,0-10,1.5c-4.2,2-7.4,5.5-9,9.9c-1.6,4.4-1.3,9.2,0.6,13.4s5.5,7.4,9.9,9c1.9,0.7,3.9,1,5.9,1c2.5,0,5.1-0.6,7.5-1.7   c2.8-1.3,5.2-3.4,7-6c0.2-0.3,0.2-0.6,0.1-1S60.1,60.3,59.8,60.3z M52.6,66c-3.7,1.8-8,2-11.8,0.6c-3.9-1.4-7-4.2-8.8-8   c-1.8-3.7-2-8-0.6-11.8c1.4-3.9,4.2-7,8-8.8c2.1-1,4.3-1.5,6.6-1.5c0.3,0,0.5,0,0.8,0c-2.7,4.9-2.9,10.9-0.5,15.9   c2.3,4.8,6.5,8.3,11.6,9.5C56.4,63.6,54.7,65,52.6,66z"></path><path d="M60.4,41.2c-0.2-0.3-0.5-0.4-0.8-0.4s-0.6,0.1-0.8,0.4l-3.9,5.1c-0.3,0.4-0.3,0.8,0,1.2l3.9,5.1c0.2,0.3,0.5,0.4,0.8,0.4   s0.6-0.1,0.8-0.4l3.9-5.1c0.3-0.4,0.3-0.8,0-1.2L60.4,41.2z M59.6,50.4L57,47l2.6-3.5l2.6,3.5L59.6,50.4z"></path><path d="M67.4,37.7C67.4,37.7,67.4,37.7,67.4,37.7c0.4,0,0.7-0.2,0.9-0.5l1.7-2.7c0.2-0.4,0.2-0.9-0.1-1.2l-2.2-2.4   c-0.2-0.2-0.5-0.3-0.8-0.3c-0.3,0-0.6,0.2-0.8,0.5l-1.7,2.7c-0.2,0.4-0.2,0.9,0.1,1.2l2.2,2.4C66.8,37.5,67.1,37.7,67.4,37.7z    M67,33.2l0.8,0.8l-0.6,1l-0.8-0.8L67,33.2z"></path><path d="M71.3,54.4l-1.9-2.6c-0.4-0.5-1.2-0.5-1.6,0l-1.9,2.6c-0.3,0.4-0.3,0.8,0,1.2l1.9,2.6c0.2,0.3,0.5,0.4,0.8,0.4   s0.6-0.1,0.8-0.4l1.9-2.6C71.6,55.2,71.6,54.7,71.3,54.4z M68.6,55.9L67.9,55l0.7-0.9l0.7,0.9L68.6,55.9z"></path></g></svg>