<svg height='100px' width='100px'  fill="#e8d360" xmlns="http://www.w3.org/2000/svg" xmlns:xlink="http://www.w3.org/1999/xlink" version="1.1" x="0px" y="0px" viewBox="0 0 100 100" style="enable-background:new 0 0 100 100;" xml:space="preserve"><g><path d="M50,33c-9.6,0-17.5,7.9-17.5,17.5S40.4,68,50,68s17.5-7.9,17.5-17.5S59.6,33,50,33z M50,66c-8.5,0-15.5-7-15.5-15.5   S41.5,35,50,35s15.5,7,15.5,15.5S58.5,66,50,66z"></path><path d="M50,28.5c0.6,0,1-0.4,1-1v-5c0-0.6-0.4-1-1-1s-1,0.4-1,1v5C49,28.1,49.4,28.5,50,28.5z"></path><path d="M50,71.5c-0.6,0-1,0.4-1,1v5c0,0.6,0.4,1,1,1s1-0.4,1-1v-5C51,71.9,50.6,71.5,50,71.5z"></path><path d="M33.4,34.8c0.2,0.2,0.5,0.3,0.7,0.3s0.5-0.1,0.7-0.3c0.4-0.4,0.4-1,0-1.4l-3.5-3.5c-0.4-0.4-1-0.4-1.4,0s-0.4,1,0,1.4   L33.4,34.8z"></path><path d="M66.6,65.2c-0.4-0.4-1-0.4-1.4,0c-0.4,0.4-0.4,1,0,1.4l3.5,3.5c0.2,0.2,0.5,0.3,0.7,0.3s0.5-0.1,0.7-0.3   c0.4-0.4,0.4-1,0-1.4L66.6,65.2z"></path><path d="M27.5,49h-5c-0.6,0-1,0.4-1,1s0.4,1,1,1h5c0.6,0,1-0.4,1-1S28.1,49,27.5,49z"></path><path d="M77.5,49h-5c-0.6,0-1,0.4-1,1s0.4,1,1,1h5c0.6,0,1-0.4,1-1S78.1,49,77.5,49z"></path><path d="M33.4,65.2l-3.5,3.5c-0.4,0.4-0.4,1,0,1.4c0.2,0.2,0.5,0.3,0.7,0.3s0.5-0.1,0.7-0.3l3.5-3.5c0.4-0.4,0.4-1,0-1.4   S33.8,64.8,33.4,65.2z"></path><path d="M68.7,29.8l-3.5,3.5c-0.4,0.4-0.4,1,0,1.4c0.2,0.2,0.5,0.3,0.7,0.3s0.5-0.1,0.7-0.3l3.5-3.5c0.4-0.4,0.4-1,0-1.4   C69.8,29.5,69.1,29.5,68.7,29.8z"></path></g></svg>